<?xml version="1.0" encoding="UTF-8" standalone="no"?><!DOCTYPE svg PUBLIC "-//W3C//DTD SVG 1.1//EN" "http://www.w3.org/Graphics/SVG/1.1/DTD/svg11.dtd"><svg width="100%" height="100%" viewBox="0 0 88 48" version="1.1" xmlns="http://www.w3.org/2000/svg" xmlns:xlink="http://www.w3.org/1999/xlink" xml:space="preserve" xmlns:serif="http://www.serif.com/" style="fill-rule:evenodd;clip-rule:evenodd;stroke-linejoin:round;stroke-miterlimit:2;"><path d="M27.353,14.51c-3.521,-0.502 -6.248,-3.549 -6.248,-7.229c0,-4 3.256,-7.281 7.281,-7.281c3.893,-0 7.071,3.045 7.281,6.885c-3.388,1.773 -6.273,4.393 -8.314,7.625" style="fill:#009fe3;"/><path d="M22.638,37.707c-1.932,3.947 -6.008,6.672 -10.695,6.672c-6.594,0 -11.943,-5.348 -11.943,-11.916c0,-0.131 0.027,-0.264 0.027,-0.397c3.707,3.309 12.683,5.216 22.611,5.641m1.221,-5.244c0,1.271 -0.213,2.49 -0.557,3.629c-11.043,-0.345 -20.812,-2.436 -23.01,-6.17c0.052,-0.318 0.133,-0.636 0.237,-0.927c1.484,-4.899 6.037,-8.448 11.414,-8.448c2.488,0 4.793,0.768 6.699,2.068c3.15,2.143 5.217,5.744 5.217,9.848" style="fill:#e30613;"/><path d="M70.249,22.824c-3.838,-1.986 -6.434,-5.984 -6.434,-10.592c0,-6.568 5.321,-11.916 11.916,-11.916c3.256,0 6.223,1.324 8.368,3.444c-0.053,4.209 -2.596,8.71 -6.727,12.974c-2.039,2.119 -4.447,4.158 -7.123,6.09m17.396,-10.592c0,6.592 -5.347,11.916 -11.914,11.916c-1.296,0 -2.515,-0.185 -3.679,-0.582c2.433,-1.801 4.631,-3.707 6.539,-5.668c3.84,-3.97 6.406,-8.207 7.043,-12.285c1.271,1.879 2.011,4.156 2.011,6.619" style="fill:#3baa35;"/><path d="M27.989,36.117c-1.537,-2.885 -2.438,-6.196 -2.438,-9.691c0,-2.33 0.397,-4.555 1.112,-6.647c2.756,-8.101 10.433,-13.955 19.49,-13.955c4.052,0 7.836,1.166 11.015,3.203c5.428,3.444 9.135,9.35 9.532,16.154c-3.256,2.04 -6.805,3.893 -10.458,5.455c-2.489,1.032 -5.032,1.96 -7.573,2.727c-2.385,0.689 -4.979,1.244 -7.731,1.695c-2.756,0.424 -5.668,0.715 -8.607,0.902c-1.457,0.078 -2.912,0.131 -4.342,0.157m38.738,-8.977c-0.369,11.043 -9.453,19.861 -20.574,19.861c-7.176,0 -13.504,-3.655 -17.185,-9.242c1.138,-0.027 2.304,-0.081 3.443,-0.133c2.992,-0.183 5.957,-0.476 8.791,-0.926c2.832,-0.451 5.507,-1.033 7.916,-1.748l0.027,0c2.595,-0.769 5.19,-1.696 7.732,-2.781c3.415,-1.455 6.752,-3.152 9.85,-5.031" style="fill:#f39200;"/></svg>